<?xml version="1.0" encoding="UTF-8"?>
<svg version="1.1" xmlns="http://www.w3.org/2000/svg" width="120" height="63">
<path d="M0 0 C1.67255859 0.00193359 1.67255859 0.00193359 3.37890625 0.00390625 C6.73119659 0.47913515 7.88852421 1.32136915 10.4375 3.4375 C12.55014636 4.20431725 12.55014636 4.20431725 14.6875 4.625 C16.54375 5.0271875 16.54375 5.0271875 18.4375 5.4375 C17.6875 10.1875 17.6875 10.1875 15.4375 12.4375 C12.8895589 13.05726946 10.33756376 13.45376869 7.75 13.875 C5.25992883 14.26843987 5.25992883 14.26843987 3.4375 16.4375 C2.48875 16.705625 1.54 16.97375 0.5625 17.25 C-3.23828693 18.69429903 -4.37510774 20.04327062 -6.5625 23.4375 C-7.0575 24.613125 -7.5525 25.78875 -8.0625 27 C-9.5625 30.4375 -9.5625 30.4375 -11.6875 32.5 C-15.74836283 36.69622492 -14.67968331 43.24461692 -14.6953125 48.75390625 C-14.56391287 51.40895179 -14.15226031 53.84910752 -13.5625 56.4375 C-11.9125 56.7675 -10.2625 57.0975 -8.5625 57.4375 C-8.8925 58.4275 -9.2225 59.4175 -9.5625 60.4375 C-10.5525 60.4375 -11.5425 60.4375 -12.5625 60.4375 C-12.5625 61.4275 -12.5625 62.4175 -12.5625 63.4375 C-15.5325 63.4375 -18.5025 63.4375 -21.5625 63.4375 C-22.2225 61.1275 -22.8825 58.8175 -23.5625 56.4375 C-24.2225 56.4375 -24.8825 56.4375 -25.5625 56.4375 C-26.2225 49.8375 -26.8825 43.2375 -27.5625 36.4375 C-30.5325 36.4375 -33.5025 36.4375 -36.5625 36.4375 C-39.13747918 36.05545561 -41.70295475 35.60012084 -44.25 35.0625 C-45.49136719 34.80726562 -46.73273437 34.55203125 -48.01171875 34.2890625 C-51.2767437 33.50603121 -54.39850659 32.55534713 -57.5625 31.4375 C-57.9028125 32.00597656 -58.243125 32.57445312 -58.59375 33.16015625 C-61.30781309 37.48388973 -63.82851013 40.85029977 -67.875 44 C-70.91458901 46.46640937 -72.08802257 47.95540383 -72.5625 51.875 C-72.5625 53.050625 -72.5625 54.22625 -72.5625 55.4375 C-71.2425 55.7675 -69.9225 56.0975 -68.5625 56.4375 C-68.5625 57.4275 -68.5625 58.4175 -68.5625 59.4375 C-69.5525 60.0975 -70.5425 60.7575 -71.5625 61.4375 C-72.2225 62.0975 -72.8825 62.7575 -73.5625 63.4375 C-76.5625 63.75 -76.5625 63.75 -79.5625 63.4375 C-82.94952085 58.35696872 -82.26036609 52.36251995 -81.5625 46.4375 C-80.1951144 43.90931224 -78.63228304 42.50728304 -76.5625 40.4375 C-75.6527635 36.65859452 -75.55255875 33.16637437 -75.625 29.3125 C-75.56561772 25.63079838 -75.01275636 23.72474775 -73.5625 20.4375 C-74.4803125 20.33953125 -75.398125 20.2415625 -76.34375 20.140625 C-86.9642952 18.84652495 -93.78579856 17.36757949 -100.53125 8.828125 C-100.8715625 8.36921875 -101.211875 7.9103125 -101.5625 7.4375 C-97.5593948 7.99722621 -95.18896305 9.24266285 -91.875 11.5 C-84.21875038 15.87201139 -76.09374847 15.10545702 -67.5625 14.4375 C-66.95519043 14.26597412 -66.34788086 14.09444824 -65.72216797 13.91772461 C-62.79539493 13.26692622 -60.06275068 13.38209053 -57.06640625 13.4453125 C-55.14344727 13.47044922 -55.14344727 13.47044922 -53.18164062 13.49609375 C-50.51185457 13.53666703 -47.84334052 13.59164302 -45.17382812 13.65234375 C-31.15941456 13.80596463 -19.72379786 11.98567866 -9.22265625 2.2734375 C-5.92103236 -0.00521629 -3.97669177 -0.06911979 0 0 Z " fill="#6059E1" transform="translate(101.5625,-0.4375)"/>
</svg>
